<svg width="50" height="50" viewBox="0 0 50 50" fill="none" xmlns="http://www.w3.org/2000/svg">
<path d="M32.0629 26.6324C32.3579 25.9874 33.1754 25.3899 33.8804 25.3099C34.5854 25.2299 35.2279 24.5849 35.3079 23.8799C35.3929 23.1799 35.9879 22.3599 36.6304 22.0624C36.9541 21.8977 37.2175 21.635 37.3831 21.3118C37.5488 20.9886 37.6082 20.6213 37.5529 20.2624C37.4079 19.5674 37.7229 18.6049 38.2429 18.1274C38.5004 17.8699 38.6699 17.5374 38.7269 17.1777C38.7839 16.818 38.7256 16.4494 38.5604 16.1249C38.3895 15.7758 38.3006 15.3923 38.3006 15.0036C38.3006 14.615 38.3895 14.2315 38.5604 13.8824C38.7256 13.5578 38.7839 13.1893 38.7269 12.8296C38.6699 12.4698 38.5004 12.1374 38.2429 11.8799C37.7229 11.3974 37.4104 10.4374 37.5529 9.74488C37.6093 9.38516 37.5504 9.01681 37.3847 8.69258C37.219 8.36836 36.955 8.10488 36.6304 7.93988C36.2869 7.75662 35.9894 7.49786 35.7604 7.18305C35.5313 6.86825 35.3766 6.5056 35.3079 6.12238C35.2505 5.7642 35.0817 5.43322 34.8254 5.1765C34.5691 4.91978 34.2385 4.75038 33.8804 4.69238C33.4968 4.62572 33.1335 4.4721 32.8185 4.24329C32.5034 4.01448 32.2449 3.71656 32.0629 3.37238C31.8968 3.04918 31.6328 2.7867 31.3087 2.62239C30.9845 2.45808 30.6168 2.40033 30.2579 2.45738C29.8726 2.51214 29.4798 2.47798 29.1098 2.35751C28.7397 2.23704 28.4021 2.03347 28.1229 1.76238C27.6404 1.23738 26.7404 1.09738 26.1229 1.44488C25.5054 1.79238 24.4929 1.79238 23.8779 1.44488C23.5548 1.2751 23.1856 1.21381 22.825 1.27009C22.4643 1.32637 22.1314 1.49722 21.8754 1.75738C21.5961 2.02847 21.2586 2.23204 20.8885 2.35251C20.5184 2.47298 20.1257 2.50714 19.7404 2.45238C19.3818 2.3947 19.0142 2.45249 18.6907 2.61741C18.3671 2.78234 18.1044 3.04585 17.9404 3.36988C17.6429 4.00988 16.8254 4.60738 16.1204 4.68738C15.7615 4.74504 15.43 4.9146 15.1732 5.17185C14.9164 5.4291 14.7474 5.76089 14.6904 6.11988C14.6231 6.50329 14.4689 6.8662 14.2397 7.18081C14.0105 7.49541 13.7122 7.75336 13.3679 7.93488C13.0447 8.10102 12.7822 8.36498 12.6179 8.68911C12.4536 9.01324 12.3958 9.38099 12.4529 9.73988C12.5904 10.4324 12.2779 11.3949 11.7579 11.8749C11.2379 12.3549 11.0929 13.2549 11.4404 13.8774C11.7879 14.4924 11.7879 15.5049 11.4404 16.1199C11.2745 16.4447 11.2159 16.8138 11.273 17.174C11.33 17.5343 11.4998 17.8672 11.7579 18.1249C12.2804 18.5999 12.5904 19.5624 12.4529 20.2599C12.397 20.618 12.4552 20.9846 12.6195 21.3078C12.7837 21.6309 13.0456 21.894 13.3679 22.0599C14.0129 22.3574 14.6054 23.1774 14.6879 23.8774C14.7729 24.5824 15.4129 25.2274 16.1179 25.3074C16.8229 25.3874 17.6404 25.9874 17.9379 26.6299C18.1037 26.9522 18.3669 27.214 18.69 27.3783C19.0131 27.5425 19.3798 27.6008 19.7379 27.5449C20.4329 27.4074 21.3954 27.7174 21.8729 28.2399C22.1304 28.4974 22.4628 28.6669 22.8226 28.7239C23.1823 28.7809 23.5508 28.7226 23.8754 28.5574C24.4904 28.2099 25.5029 28.2099 26.1204 28.5574C26.7379 28.9049 27.6379 28.7599 28.1204 28.2399C28.6029 27.7149 29.5604 27.4074 30.2554 27.5449C30.6144 27.6027 30.9825 27.5456 31.3071 27.3817C31.6317 27.2178 31.8962 26.9556 32.0629 26.6324ZM25.0004 23.4974C22.746 23.4974 20.584 22.6018 18.99 21.0078C17.3959 19.4137 16.5004 17.2517 16.5004 14.9974C16.5004 12.743 17.3959 10.581 18.99 8.98697C20.584 7.39292 22.746 6.49738 25.0004 6.49738C27.2547 6.49738 29.4167 7.39292 31.0108 8.98697C32.6049 10.581 33.5004 12.743 33.5004 14.9974C33.5004 17.2517 32.6049 19.4137 31.0108 21.0078C29.4167 22.6018 27.2547 23.4974 25.0004 23.4974ZM14.9379 28.5224L11.8304 46.1449L19.6504 44.9849L26.6029 48.7499L29.6979 31.1974C27.199 31.9295 24.5639 32.0689 22.0017 31.6045C19.4395 31.1402 17.0209 30.0849 14.9379 28.5224ZM34.9029 28.6424C34.1204 29.2073 33.2926 29.7065 32.4279 30.1349L30.5579 40.7249L38.9804 36.1549L34.9029 28.6424Z" fill="#F97316"/>
</svg>
