<svg width="50" height="50" viewBox="0 0 50 50" fill="none" xmlns="http://www.w3.org/2000/svg">
<path fill-rule="evenodd" clip-rule="evenodd" d="M2.08301 6.25008C2.08301 5.69755 2.3025 5.16764 2.6932 4.77694C3.0839 4.38624 3.61381 4.16675 4.16634 4.16675H27.083C27.6355 4.16675 28.1654 4.38624 28.5561 4.77694C28.9468 5.16764 29.1663 5.69755 29.1663 6.25008V16.6667H37.4997C38.8676 16.6667 40.2222 16.9362 41.486 17.4597C42.7498 17.9832 43.8981 18.7504 44.8654 19.7177C45.8326 20.685 46.5999 21.8333 47.1234 23.0971C47.6469 24.3609 47.9163 25.7155 47.9163 27.0834V35.4167C47.9169 36.758 47.486 38.0638 46.6872 39.1413C45.8885 40.2187 44.7644 41.0107 43.4809 41.4001C43.0988 42.6605 42.3283 43.768 41.2794 44.5645C40.2305 45.361 38.9568 45.8058 37.64 45.8353C36.3233 45.8649 35.0309 45.4777 33.9473 44.7291C32.8636 43.9805 32.0442 42.9087 31.6059 41.6667H18.3955C17.9572 42.9087 17.1378 43.9805 16.0542 44.7291C14.9705 45.4777 13.6781 45.8649 12.3614 45.8353C11.0447 45.8058 9.77094 45.361 8.72202 44.5645C7.6731 43.768 6.9026 42.6605 6.52051 41.4001C5.23667 41.011 4.11206 40.2193 3.31294 39.1418C2.51382 38.0643 2.0826 36.7582 2.08301 35.4167V27.0834H14.583C15.1355 27.0834 15.6654 26.8639 16.0561 26.4732C16.4468 26.0825 16.6663 25.5526 16.6663 25.0001C16.6663 24.4475 16.4468 23.9176 16.0561 23.5269C15.6654 23.1362 15.1355 22.9167 14.583 22.9167H2.08301V18.7501H10.4163C10.9689 18.7501 11.4988 18.5306 11.8895 18.1399C12.2802 17.7492 12.4997 17.2193 12.4997 16.6667C12.4997 16.1142 12.2802 15.5843 11.8895 15.1936C11.4988 14.8029 10.9689 14.5834 10.4163 14.5834H2.08301V6.25008ZM29.1663 37.5001H31.6059C32.0178 36.3343 32.7661 35.317 33.7563 34.5766C34.7465 33.8362 35.934 33.4062 37.1686 33.3409C38.4032 33.2755 39.6295 33.5778 40.6923 34.2095C41.7551 34.8412 42.6066 35.7739 43.1393 36.8897C43.53 36.4991 43.7496 35.9692 43.7497 35.4167V27.0834C43.7497 25.4258 43.0912 23.8361 41.9191 22.664C40.747 21.4919 39.1573 20.8334 37.4997 20.8334H29.1663V37.5001ZM14.583 39.5834C14.583 39.0309 14.3635 38.501 13.9728 38.1103C13.5821 37.7196 13.0522 37.5001 12.4997 37.5001C11.9471 37.5001 11.4172 37.7196 11.0265 38.1103C10.6358 38.501 10.4163 39.0309 10.4163 39.5834C10.4163 40.1359 10.6358 40.6659 11.0265 41.0566C11.4172 41.4473 11.9471 41.6667 12.4997 41.6667C13.0522 41.6667 13.5821 41.4473 13.9728 41.0566C14.3635 40.6659 14.583 40.1359 14.583 39.5834ZM36.0268 38.1105C35.636 38.5011 35.4165 39.0309 35.4163 39.5834C35.4162 40.0654 35.5833 40.5325 35.889 40.9052C36.1947 41.2778 36.6201 41.533 37.0928 41.6271C37.5655 41.7212 38.0563 41.6485 38.4814 41.4214C38.9065 41.1943 39.2397 40.8267 39.4243 40.3815C39.6088 39.9362 39.6332 39.4407 39.4934 38.9794C39.3536 38.5182 39.0581 38.1197 38.6574 37.8518C38.2567 37.584 37.7755 37.4634 37.2958 37.5105C36.8161 37.5577 36.3676 37.7697 36.0268 38.1105Z" fill="#F97316"/>
</svg>
