<svg width="50" height="50" viewBox="0 0 50 50" fill="none" xmlns="http://www.w3.org/2000/svg">
<path d="M9.375 42.7083H20.8333C21.2477 42.7083 21.6452 42.5436 21.9382 42.2506C22.2312 41.9576 22.3958 41.5602 22.3958 41.1458C22.3958 40.7314 22.2312 40.3339 21.9382 40.0409C21.6452 39.7479 21.2477 39.5833 20.8333 39.5833H9.375C8.9606 39.5833 8.56317 39.7479 8.27015 40.0409C7.97712 40.3339 7.8125 40.7314 7.8125 41.1458C7.8125 41.5602 7.97712 41.9576 8.27015 42.2506C8.56317 42.5436 8.9606 42.7083 9.375 42.7083ZM20.8333 45.8333H9.375C8.9606 45.8333 8.56317 45.9979 8.27015 46.2909C7.97712 46.5839 7.8125 46.9814 7.8125 47.3958C7.8125 47.8102 7.97712 48.2076 8.27015 48.5006C8.56317 48.7936 8.9606 48.9583 9.375 48.9583H20.8333C21.2477 48.9583 21.6452 48.7936 21.9382 48.5006C22.2312 48.2076 22.3958 47.8102 22.3958 47.3958C22.3958 46.9814 22.2312 46.5839 21.9382 46.2909C21.6452 45.9979 21.2477 45.8333 20.8333 45.8333ZM29.1667 40.1041H39.5833C39.5833 40.1041 41.6667 40.1041 41.6667 42.1874V46.3541C41.6667 46.3541 41.6667 48.4374 39.5833 48.4374H29.1667C29.1667 48.4374 27.0833 48.4374 27.0833 46.3541V42.1874C27.0833 42.1874 27.0833 40.1041 29.1667 40.1041Z" fill="#F97316"/>
<path d="M21.875 4.16675C22.4275 4.16675 22.9574 4.38624 23.3481 4.77694C23.7388 5.16764 23.9583 5.69755 23.9583 6.25008C23.9583 6.80262 23.7388 7.33252 23.3481 7.72322C22.9574 8.11392 22.4275 8.33341 21.875 8.33341C21.3225 8.33341 20.7926 8.11392 20.4019 7.72322C20.0112 7.33252 19.7917 6.80262 19.7917 6.25008C19.7917 5.69755 20.0112 5.16764 20.4019 4.77694C20.7926 4.38624 21.3225 4.16675 21.875 4.16675ZM14.5833 4.16675C15.1359 4.16675 15.6658 4.38624 16.0565 4.77694C16.4472 5.16764 16.6667 5.69755 16.6667 6.25008C16.6667 6.80262 16.4472 7.33252 16.0565 7.72322C15.6658 8.11392 15.1359 8.33341 14.5833 8.33341C14.0308 8.33341 13.5009 8.11392 13.1102 7.72322C12.7195 7.33252 12.5 6.80262 12.5 6.25008C12.5 5.69755 12.7195 5.16764 13.1102 4.77694C13.5009 4.38624 14.0308 4.16675 14.5833 4.16675ZM7.29167 4.16675C7.8442 4.16675 8.3741 4.38624 8.7648 4.77694C9.15551 5.16764 9.375 5.69755 9.375 6.25008C9.375 6.80262 9.15551 7.33252 8.7648 7.72322C8.3741 8.11392 7.8442 8.33341 7.29167 8.33341C6.73913 8.33341 6.20923 8.11392 5.81853 7.72322C5.42783 7.33252 5.20833 6.80262 5.20833 6.25008C5.20833 5.69755 5.42783 5.16764 5.81853 4.77694C6.20923 4.38624 6.73913 4.16675 7.29167 4.16675ZM50 46.7084V7.29175C50 5.63414 49.3415 4.04443 48.1694 2.87233C46.9973 1.70023 45.4076 1.04175 43.75 1.04175H6.25C4.5924 1.04175 3.00268 1.70023 1.83058 2.87233C0.65848 4.04443 0 5.63414 0 7.29175L0 46.7084C0 47.2609 0.219493 47.7909 0.610194 48.1816C1.0009 48.5723 1.5308 48.7917 2.08333 48.7917C2.63587 48.7917 3.16577 48.5723 3.55647 48.1816C3.94717 47.7909 4.16667 47.2609 4.16667 46.7084V11.9792C4.16667 11.8411 4.22154 11.7086 4.31922 11.611C4.41689 11.5133 4.54937 11.4584 4.6875 11.4584H45.3125C45.4506 11.4584 45.5831 11.5133 45.6808 11.611C45.7785 11.7086 45.8333 11.8411 45.8333 11.9792V46.7084C45.8333 47.2609 46.0528 47.7909 46.4435 48.1816C46.8342 48.5723 47.3641 48.7917 47.9167 48.7917C48.4692 48.7917 48.9991 48.5723 49.3898 48.1816C49.7805 47.7909 50 47.2609 50 46.7084Z" fill="#F97316"/>
<path d="M8.33301 16.0625V33.7708H41.6663V16.0625H8.33301ZM15.1038 24.8333C14.6918 24.8333 14.289 24.7111 13.9464 24.4822C13.6038 24.2533 13.3368 23.9279 13.1791 23.5473C13.0214 23.1666 12.9802 22.7477 13.0605 22.3436C13.1409 21.9394 13.3393 21.5682 13.6307 21.2769C13.9221 20.9855 14.2933 20.7871 14.6974 20.7067C15.1015 20.6263 15.5204 20.6676 15.9011 20.8253C16.2818 20.9829 16.6071 21.25 16.8361 21.5926C17.065 21.9352 17.1872 22.338 17.1872 22.75C17.1872 23.3025 16.9677 23.8324 16.577 24.2231C16.1863 24.6138 15.6564 24.8333 15.1038 24.8333ZM20.1663 30.0417L28.9788 22.1875C29.3641 21.8302 29.8701 21.6317 30.3955 21.6317C30.9209 21.6317 31.4269 21.8302 31.8122 22.1875L39.583 30.0417H20.1663Z" fill="#F97316"/>
</svg>
