<svg width="50" height="50" viewBox="0 0 50 50" fill="none" xmlns="http://www.w3.org/2000/svg">
<path fill-rule="evenodd" clip-rule="evenodd" d="M13.542 20.3125C13.5417 18.8447 13.9291 17.4029 14.665 16.1329C15.4008 14.863 16.4591 13.8099 17.7326 13.0802C17.718 12.1642 17.71 11.1028 17.7087 9.89583C17.7087 7.23854 17.7545 5.30729 17.8024 4.01562C17.8472 2.76562 18.692 1.7375 19.9378 1.63542C20.4691 1.59271 21.1128 1.5625 21.8753 1.5625C22.6378 1.5625 23.2816 1.59271 23.8128 1.63542C25.0587 1.7375 25.9035 2.76562 25.9482 4.01562C25.9962 5.30729 26.042 7.23854 26.042 9.89583C26.0413 11.1028 26.0333 12.1642 26.018 13.0802C27.2882 13.808 28.3443 14.8575 29.08 16.1231C29.8156 17.3887 30.2049 18.8258 30.2086 20.2897C30.2123 21.7536 29.8304 23.1927 29.1011 24.462C28.3719 25.7314 27.3212 26.7862 26.0547 27.5204C24.7882 28.2546 23.3506 28.6422 21.8867 28.6442C20.4228 28.6462 18.9842 28.2625 17.7157 27.5318C16.4472 26.8011 15.3936 25.7491 14.6609 24.4818C13.9282 23.2144 13.5423 21.7764 13.542 20.3125ZM29.1618 11.4688C29.1653 10.9757 29.167 10.4514 29.167 9.89583C29.167 7.20312 29.1212 5.23333 29.0722 3.90104C29.056 3.4703 28.992 3.04269 28.8816 2.62604C36.5357 5.23437 42.0722 12.35 42.2451 20.775L46.2868 26.4104C47.0087 27.4177 46.9326 28.8896 45.7607 29.6073C44.8722 30.149 43.5743 30.7812 41.8326 31.2427L41.2326 38.3573C41.1915 38.8463 41.052 39.322 40.8226 39.7558C40.5932 40.1896 40.2785 40.5727 39.8976 40.882C39.5166 41.1913 39.077 41.4205 38.6053 41.5559C38.1336 41.6912 37.6394 41.73 37.1524 41.6698L34.5274 41.3448V44.3833C34.5274 45.9531 33.5055 47.3729 31.9035 47.6698C29.9753 48.0292 26.8159 48.4375 22.4264 48.4375C18.0368 48.4375 14.8784 48.0292 12.9493 47.6698C11.3482 47.3719 10.3243 45.9531 10.3243 44.3833V36.7188C5.63262 33.1333 2.60449 27.5073 2.60449 21.1802C2.60449 13.0302 7.62533 6.04479 14.768 3.08125C14.7194 3.35208 14.6896 3.62535 14.6784 3.90104C14.6295 5.23333 14.5837 7.20312 14.5837 9.89583C14.5837 10.4514 14.5854 10.9757 14.5889 11.4688C13.283 12.5428 12.2316 13.8931 11.5102 15.4223C10.7888 16.9515 10.4154 18.6217 10.417 20.3125C10.417 26.4229 15.2003 31.4167 21.2264 31.7531C24.6305 34.9135 29.5837 36.9792 34.3753 36.9792C34.7897 36.9792 35.1872 36.8145 35.4802 36.5215C35.7732 36.2285 35.9378 35.8311 35.9378 35.4167C35.9378 35.0023 35.7732 34.6048 35.4802 34.3118C35.1872 34.0188 34.7897 33.8542 34.3753 33.8542C31.3316 33.8542 28.1576 32.8302 25.5607 31.1656C30.0816 29.6313 33.3337 25.351 33.3337 20.3125C33.3352 18.6217 32.9618 16.9515 32.2405 15.4223C31.5191 13.8931 30.4676 12.5428 29.1618 11.4688Z" fill="#F97316"/>
</svg>
