<svg width="50" height="50" viewBox="0 0 50 50" fill="none" xmlns="http://www.w3.org/2000/svg">
<path d="M45.8337 8.20841L25.0003 0.916748L4.16699 8.20841V25.0001C4.16699 33.598 9.44616 39.6084 14.367 43.3397C17.338 45.5697 20.5966 47.3883 24.0545 48.7459C24.2906 48.8348 24.5281 48.9195 24.767 49.0001L25.0003 49.0834L25.2378 49.0001C25.6933 48.8419 26.1449 48.6724 26.592 48.4917C29.8123 47.165 32.8506 45.4337 35.6337 43.3397C40.5566 39.6084 45.8337 33.598 45.8337 25.0001V8.20841ZM22.9191 32.1147L14.0837 23.2751L17.0295 20.3272L22.9212 26.2209L34.7066 14.4355L37.6545 17.3813L22.9191 32.1147Z" fill="#F97316"/>
</svg>
